<svg xmlns="http://www.w3.org/2000/svg" viewBox="0 0 83.53 83.53"><defs><style>.cls-1{fill:#161412;}</style></defs><title>xr-logo</title><g id="Layer_2" data-name="Layer 2"><g id="Layer_1-2" data-name="Layer 1"><path class="cls-1" d="M77.1,41.77a35.17,35.17,0,0,1-9.7,24.3L46.27,41.76,67.4,17.46a35.2,35.2,0,0,1,9.7,24.31M41.76,6.43A35.19,35.19,0,0,1,64.9,15.07H18.63A35.16,35.16,0,0,1,41.76,6.43m-25.63,11,21.13,24.3L16.13,66.07a35.3,35.3,0,0,1,0-48.61M41.76,36.58,28.67,21.52H54.86Zm0,10.36L54.86,62H28.67Zm0,30.16a35.16,35.16,0,0,1-23.13-8.64H64.9A35.19,35.19,0,0,1,41.76,77.1M83.53,41.77A41.77,41.77,0,1,0,41.76,83.53,41.77,41.77,0,0,0,83.53,41.77"/></g></g></svg>