<?xml version="1.0" encoding="UTF-8" standalone="no"?>
<svg
   xmlns:dc="http://purl.org/dc/elements/1.1/"
   xmlns:cc="http://creativecommons.org/ns#"
   xmlns:rdf="http://www.w3.org/1999/02/22-rdf-syntax-ns#"
   xmlns:svg="http://www.w3.org/2000/svg"
   xmlns="http://www.w3.org/2000/svg"
   xmlns:sodipodi="http://sodipodi.sourceforge.net/DTD/sodipodi-0.dtd"
   xmlns:inkscape="http://www.inkscape.org/namespaces/inkscape"
   width="100%"
   height="100%"
   viewBox="0 0 180 60"
   version="1.1"
   xml:space="preserve"
   style="fill-rule:evenodd;clip-rule:evenodd;stroke-linejoin:round;stroke-miterlimit:2;"
   id="svg34"
   sodipodi:docname="XR-logo-full.svg"
   inkscape:version="1.0.1 (3bc2e813f5, 2020-09-07)"><metadata
   id="metadata40"><rdf:RDF><cc:Work
       rdf:about=""><dc:format>image/svg+xml</dc:format><dc:type
         rdf:resource="http://purl.org/dc/dcmitype/StillImage" /></cc:Work></rdf:RDF></metadata><defs
   id="defs38" /><sodipodi:namedview
   pagecolor="#ffffff"
   bordercolor="#666666"
   borderopacity="1"
   objecttolerance="10"
   gridtolerance="10"
   guidetolerance="10"
   inkscape:pageopacity="0"
   inkscape:pageshadow="2"
   inkscape:window-width="1920"
   inkscape:window-height="1027"
   id="namedview36"
   showgrid="false"
   inkscape:zoom="1.1309553"
   inkscape:cx="509.02235"
   inkscape:cy="-91.957195"
   inkscape:window-x="-8"
   inkscape:window-y="-8"
   inkscape:window-maximized="1"
   inkscape:current-layer="text44" />
    <g
   transform="matrix(0.661765,0,0,0.666667,-5.29412,-4.66667)"
   id="g32">
        
        
        <path
   d="m 270.52084,51.536844 c 0,9.4 -3.7,18 -9.7,24.3 l -21.1,-24.3 21.1,-24.3 c 6,6.3 9.7,14.9 9.7,24.3 m -35.3,-35.3 c 8.9,0 16.9,3.3 23.1,8.6 h -4.4 -37.4 -4.4 c 6.1,-5.4 14.2,-8.6 23.1,-8.6 m -25.7,11 21.2,24.3 -21.2,24.3 c -6,-6.3 -9.7,-14.9 -9.7,-24.3 0,-9.4 3.7,-18 9.7,-24.3 m 25.7,19.1 -13.1,-15.1 h 26.2 z m 0,10.4 13.1,15.1 h -26.2 z m 0,30.1 c -8.8,0 -16.9,-3.3 -23.1,-8.6 h 46.3 c -6.3,5.4 -14.4,8.6 -23.2,8.6 m 41.7,-35.3 c 0,-23.1 -18.7,-41.7999998 -41.8,-41.7999998 -23.1,0 -41.7,18.6999998 -41.7,41.7999998 0,23.1 18.7,41.8 41.8,41.8 23,0 41.7,-18.7 41.7,-41.8"
   style="fill-rule:nonzero"
   id="path30" />
    </g>
<g
   aria-label="resistance"
   id="text44"
   style="font-size:26.6667px;line-height:1.25;font-family:'FUCXED CAPS v4';-inkscape-font-specification:'FUCXED CAPS v4'"><path
     d="m 13.409839,32.555005 q 0.05333,0.08 0.05333,0.213333 0,0.293334 -0.533334,0.293334 h -2.98667 q -0.266667,0 -0.5066673,-0.133334 Q 9.1965004,32.795005 9.0898336,32.555005 9.0365002,32.395004 8.5831663,31.22167 8.1298324,30.021668 7.7564986,29.168334 7.3298314,28.048332 6.28983,25.781663 q -0.08,2.42667 -0.08,3.413337 0,1.066668 0.053333,2.613337 l 0.026667,0.720001 q 0,0.266667 -0.1600002,0.4 -0.1333335,0.133334 -0.3466671,0.133334 H 2.4764919 q -0.2133336,0 -0.3466671,-0.133334 -0.1333335,-0.133333 -0.1333335,-0.4 l 0.053333,-9.493345 -0.053333,-9.520012 q 0,-0.240001 0.1333335,-0.373334 0.1600002,-0.133334 0.3733338,-0.16 l 4.6133392,0.02667 q 1.0400013,0 2.3733363,0.453334 1.3600019,0.426667 2.4800029,1.813336 1.120002,1.360002 1.120002,3.946671 0,1.226669 -0.666668,2.693337 -0.640001,1.466669 -2.320003,2.26667 -0.1333333,0.05333 -0.1333333,0.293333 0,0.160001 0.1600003,0.533334 0.906668,2.26667 1.680002,3.973339 z M 6.7698307,21.808324 q 1.1733348,0 1.8400023,-0.773334 0.6933342,-0.773334 0.6933342,-1.866669 0,-1.093335 -0.7200009,-1.733335 -0.6933342,-0.666668 -1.8933357,-0.666668 -0.4000006,0 -0.4000006,0.373334 v 4.213339 q 0,0.453333 0.4800007,0.453333 z"
     style="font-size:26.6667px"
     id="path63" /><path
     d="m 24.103184,28.901667 q 0.346667,0 0.48,0.133333 0.160001,0.133334 0.160001,0.346667 v 3.200004 q -0.02667,0.213334 -0.186667,0.346667 -0.160001,0.133334 -0.480001,0.133334 h -7.413343 q -0.4,0 -0.586667,-0.213334 -0.186667,-0.24 -0.186667,-0.56 l 0.133333,-9.253345 -0.133333,-9.280012 q 0,-0.32 0.186667,-0.533334 0.186667,-0.213334 0.586667,-0.213334 h 7.413343 q 0.32,0 0.480001,0.133334 0.16,0.133333 0.186667,0.32 v 3.200004 q 0,0.213334 -0.160001,0.346667 -0.16,0.133334 -0.533334,0.133334 h -1.973336 -1.493335 q -0.16,0 -0.133333,0.133333 v 3.466671 q 0,0.213334 0.133333,0.213334 h 3.306671 q 0.24,0 0.346667,0.133334 0.106667,0.106666 0.106667,0.266667 v 3.333337 0.02667 q 0,0.373334 -0.453334,0.373334 h -3.306671 q -0.133333,0 -0.133333,0.213333 v 3.466671 q -0.02667,0.133334 0.133333,0.133334 h 1.493335 0.560001 q 0.24,0 0.613334,0.02667 0.373334,0 0.800001,-0.02667 z"
     style="font-size:26.6667px"
     id="path65" /><path
     d="m 33.943147,21.728324 q 1.653335,1.360002 2.240003,2.880004 0.613334,1.520002 0.613334,2.90667 0,1.146668 -0.480001,2.533337 -0.453334,1.360002 -1.706669,2.42667 -1.226668,1.040001 -3.386671,1.040001 -1.146668,0 -2.186669,-0.346667 -1.013335,-0.320001 -2.133336,-0.986668 -0.4,-0.24 -0.4,-0.640001 v -4.133339 q 0,-0.24 0.16,-0.24 0.106667,0 0.426667,0.186667 0.933334,0.613334 1.946669,1.066668 1.040001,0.453334 1.733336,0.453334 0.960001,0 1.333335,-0.533334 0.373333,-0.533334 0.373333,-1.146668 0,-0.826668 -0.48,-1.493335 -0.453334,-0.693335 -1.893336,-1.786669 -1.813336,-1.413335 -2.693337,-2.58667 -0.880001,-1.200002 -0.880001,-2.82667 0,-2.693337 1.306669,-4.293339 1.306668,-1.600002 3.786671,-1.600002 1.920002,0 3.493338,0.693334 0.533334,0.24 0.533334,0.693334 v 3.760005 q 0,0.32 -0.16,0.32 -0.106667,0 -0.293334,-0.133333 -1.466669,-0.880001 -2.533337,-0.880001 -0.853334,0 -1.280001,0.4 -0.426668,0.400001 -0.426668,0.960001 0,0.213334 0.02667,0.320001 0.08,0.4 0.426667,0.773334 0.346667,0.346667 1.146668,1.013335 0.800002,0.613334 1.386669,1.200001 z"
     style="font-size:26.6667px"
     id="path67" /><path
     d="m 43.383146,23.034993 0.05333,9.493345 q 0,0.293334 -0.213334,0.426667 -0.186666,0.106667 -0.453333,0.106667 h -3.253338 q -0.266667,0 -0.453334,-0.133334 -0.186667,-0.133333 -0.186667,-0.4 l 0.08,-9.493345 -0.08,-9.520012 q 0,-0.266667 0.186667,-0.373334 0.186667,-0.133334 0.453334,-0.133334 h 3.280004 0.08 q 0.186667,0 0.373334,0.106667 0.186667,0.106667 0.186667,0.400001 z"
     style="font-size:26.6667px"
     id="path69" /><path
     d="m 53.143151,21.728324 q 1.653336,1.360002 2.240003,2.880004 0.613334,1.520002 0.613334,2.90667 0,1.146668 -0.48,2.533337 -0.453334,1.360002 -1.706669,2.42667 -1.226668,1.040001 -3.386671,1.040001 -1.146668,0 -2.186669,-0.346667 -1.013335,-0.320001 -2.133336,-0.986668 -0.400001,-0.24 -0.400001,-0.640001 v -4.133339 q 0,-0.24 0.16,-0.24 0.106667,0 0.426667,0.186667 0.933335,0.613334 1.94667,1.066668 1.040001,0.453334 1.733335,0.453334 0.960001,0 1.333335,-0.533334 0.373334,-0.533334 0.373334,-1.146668 0,-0.826668 -0.480001,-1.493335 -0.453334,-0.693335 -1.893335,-1.786669 -1.813336,-1.413335 -2.693337,-2.58667 -0.880001,-1.200002 -0.880001,-2.82667 0,-2.693337 1.306668,-4.293339 1.306668,-1.600002 3.786672,-1.600002 1.920002,0 3.493337,0.693334 0.533334,0.24 0.533334,0.693334 v 3.760005 q 0,0.32 -0.16,0.32 -0.106667,0 -0.293334,-0.133333 -1.466668,-0.880001 -2.533336,-0.880001 -0.853335,0 -1.280002,0.4 -0.426667,0.400001 -0.426667,0.960001 0,0.213334 0.02667,0.320001 0.08,0.4 0.426667,0.773334 0.346667,0.346667 1.146668,1.013335 0.800001,0.613334 1.386668,1.200001 z"
     style="font-size:26.6667px"
     id="path71" /><path
     d="m 67.303156,13.008313 q 0.24,0 0.400001,0.133334 0.16,0.106667 0.16,0.373334 v 3.253337 q 0,0.266667 -0.16,0.400001 -0.160001,0.106666 -0.400001,0.106666 H 65.16982 q -0.24,0 -0.24,0.186667 0,0.05333 -0.02667,1.546669 -0.02667,1.466668 -0.02667,4.026672 l 0.02667,6.693341 q 0.02667,1.253335 0.02667,2.826671 0,0.24 -0.133334,0.373333 -0.133333,0.133334 -0.346667,0.133334 h -3.573338 q -0.213333,0 -0.373333,-0.133334 -0.133334,-0.133333 -0.133334,-0.373333 v -0.826668 q 0.05333,-3.306671 0.05333,-8.693344 0,-2.480003 -0.02667,-3.973339 -0.02667,-1.520002 -0.02667,-1.600002 0,-0.24 -0.266667,-0.186667 h -2.213336 q -0.213334,0 -0.346667,-0.133333 -0.133334,-0.133334 -0.133334,-0.373334 v -3.253337 q 0,-0.266667 0.133334,-0.373334 0.133333,-0.133334 0.346667,-0.133334 z"
     style="font-size:26.6667px"
     id="path73" /><path
     d="m 82.396463,32.315004 q 0.08,0.400001 -0.133334,0.586668 -0.213334,0.16 -0.586667,0.16 h -3.466671 q -0.266667,0 -0.426668,-0.133334 -0.16,-0.16 -0.213333,-0.373333 l -0.426667,-2.080003 q -0.08,-0.346667 -0.453334,-0.346667 h -3.146671 q -0.373334,0 -0.453334,0.346667 l -0.426667,2.080003 q -0.05333,0.213333 -0.213334,0.373333 -0.16,0.133334 -0.426667,0.133334 h -3.466671 q -0.373334,0 -0.586667,-0.16 -0.213334,-0.186667 -0.133334,-0.586668 1.226668,-4.880006 2.26667,-9.280011 0.186667,-0.826668 2.160002,-9.333345 0.08,-0.346668 0.346667,-0.506668 0.293334,-0.186667 0.666668,-0.186667 h 3.680005 q 0.373333,0 0.64,0.186667 0.293334,0.16 0.373334,0.506668 l 2.160003,9.333345 q 1.040001,4.426672 2.26667,9.280011 z M 75.996454,26.52833 q 0.480001,0 0.400001,-0.533334 l -1.280002,-8.853344 v -0.08 l -0.02667,0.08 -1.253335,8.853344 v 0.106667 q 0,0.24 0.106667,0.346667 0.133333,0.08 0.32,0.08 h 1.706669 z"
     style="font-size:26.6667px"
     id="path75" /><path
     d="m 97.623148,23.034993 0.08,9.493345 q 0,0.266667 -0.16,0.4 -0.133334,0.133334 -0.346668,0.133334 h -3.573337 q -0.293334,0 -0.533334,-0.133334 -0.240001,-0.133333 -0.320001,-0.4 -0.346667,-0.880001 -1.013334,-2.613337 -0.640001,-1.733335 -0.933335,-2.533336 l -2.000002,-5.066673 -0.05333,5.120006 q 0,2.240003 0.05333,4.373339 v 0.720001 q 0,0.266667 -0.186667,0.4 -0.160001,0.133334 -0.426668,0.133334 h -3.30667 q -0.213334,0 -0.373334,-0.133334 -0.16,-0.133333 -0.16,-0.4 l 0.08,-9.493345 -0.08,-9.520012 q 0,-0.266667 0.106666,-0.373334 0.133334,-0.133334 0.320001,-0.133334 h 3.813338 q 0.480001,0 0.693334,0.506668 0.293334,0.746667 0.880001,2.320003 0.613334,1.546668 1.040002,2.720003 0.346667,0.933334 2.026669,4.986673 l 0.05333,-5.01334 q -0.02667,-1.120001 -0.05333,-2.693336 0,-1.573336 0,-2.320003 0,-0.240001 0.16,-0.373334 0.16,-0.133334 0.4,-0.133334 h 3.306671 q 0.240001,0 0.400001,0.133334 0.186667,0.106667 0.186667,0.373334 z"
     style="font-size:26.6667px"
     id="path77" /><path
     d="m 110.10312,28.901667 q 0.26666,0 0.37333,0.16 0.10667,0.133333 0.10667,0.346667 v 3.120004 q 0,0.346667 -0.26667,0.480001 -1.36,0.48 -3.46667,0.48 -2.34667,0 -4.00001,-1.493335 -1.65333,-1.520002 -2.48,-3.920005 -0.8,-2.400003 -0.8,-5.040006 0,-3.093338 1.12,-5.466674 1.14667,-2.400003 2.88001,-3.680005 1.73333,-1.306668 3.44,-1.306668 2.02667,0 3.25334,0.613334 0.32,0.186667 0.32,0.506668 v 3.120003 q 0,0.533334 -0.48,0.533334 -0.16,0 -0.21334,-0.02667 -0.53333,-0.186667 -1.46667,-0.186667 -1.12,0 -2.10666,0.826668 -0.98667,0.800001 -1.60001,2.213336 -0.61333,1.386668 -0.61333,3.013337 0,1.493335 0.58667,2.853337 0.61333,1.360001 1.6,2.213336 1.01333,0.826668 2.13333,0.826668 0.42667,0 0.74667,-0.02667 0.32,-0.05333 0.74667,-0.133334 z"
     style="font-size:26.6667px"
     id="path79" /><path
     d="m 120.92978,28.901667 q 0.34667,0 0.48,0.133333 0.16,0.133334 0.16,0.346667 v 3.200004 q -0.0267,0.213334 -0.18666,0.346667 -0.16,0.133334 -0.48,0.133334 h -7.41335 q -0.4,0 -0.58666,-0.213334 -0.18667,-0.24 -0.18667,-0.56 l 0.13333,-9.253345 -0.13333,-9.280012 q 0,-0.32 0.18667,-0.533334 0.18666,-0.213334 0.58666,-0.213334 h 7.41335 q 0.32,0 0.48,0.133334 0.16,0.133333 0.18666,0.32 v 3.200004 q 0,0.213334 -0.16,0.346667 -0.16,0.133334 -0.53333,0.133334 h -1.97334 -1.49333 q -0.16,0 -0.13334,0.133333 v 3.466671 q 0,0.213334 0.13334,0.213334 h 3.30667 q 0.24,0 0.34667,0.133334 0.10666,0.106666 0.10666,0.266667 v 3.333337 0.02667 q 0,0.373334 -0.45333,0.373334 h -3.30667 q -0.13334,0 -0.13334,0.213333 v 3.466671 q -0.0267,0.133334 0.13334,0.133334 h 1.49333 0.56 q 0.24,0 0.61334,0.02667 0.37333,0 0.8,-0.02667 z"
     style="font-size:26.6667px"
     id="path81" /></g><g
   aria-label=".earth"
   id="text48"
   style="font-size:32px;line-height:1.25;font-family:'FUCXED CAPS v4';-inkscape-font-specification:'FUCXED CAPS v4'"><path
     d="m 80.060426,43.199037 q 0.352,0 0.688,0.256 0.352,0.256 0.56,0.704 0.224,0.432 0.224,0.992 0,0.56 -0.224,1.008 -0.208,0.432 -0.56,0.688 -0.336,0.256 -0.688,0.256 -0.352,0 -0.704,-0.256 -0.336,-0.256 -0.56,-0.704 -0.224,-0.448 -0.224,-0.992 0,-0.544 0.224,-0.992 0.224,-0.448 0.56,-0.704 0.352,-0.256 0.704,-0.256 z"
     style="font-size:16px"
     id="path50" /><path
     d="m 87.596423,44.303037 q 0.208,0 0.288,0.08 0.096,0.08 0.096,0.208 v 1.92 q -0.016,0.128 -0.112,0.208 -0.096,0.08 -0.288,0.08 h -4.448 q -0.24,0 -0.352,-0.128 -0.112,-0.144 -0.112,-0.336 l 0.08,-5.552 -0.08,-5.568 q 0,-0.192 0.112,-0.32 0.112,-0.128 0.352,-0.128 h 4.448 q 0.192,0 0.288,0.08 0.096,0.08 0.112,0.192 v 1.92 q 0,0.128 -0.096,0.208 -0.096,0.08 -0.32,0.08 h -1.184 -0.896 q -0.096,0 -0.08,0.08 v 2.08 q 0,0.128 0.08,0.128 h 1.984 q 0.144,0 0.208,0.08 0.064,0.064 0.064,0.16 v 2 0.016 q 0,0.224 -0.272,0.224 h -1.984 q -0.08,0 -0.08,0.128 v 2.08 q -0.016,0.08 0.08,0.08 h 0.896 0.336 q 0.144,0 0.368,0.016 0.224,0 0.48,-0.016 z"
     style="font-size:16px"
     id="path52" /><path
     d="m 97.596395,46.351037 q 0.048,0.24 -0.08,0.352 -0.128,0.096 -0.352,0.096 h -2.08 q -0.16,0 -0.256,-0.08 -0.096,-0.096 -0.128,-0.224 l -0.256,-1.248 q -0.048,-0.208 -0.272,-0.208 h -1.888 q -0.224,0 -0.272,0.208 l -0.256,1.248 q -0.032,0.128 -0.128,0.224 -0.096,0.08 -0.256,0.08 h -2.08 q -0.224,0 -0.352,-0.096 -0.128,-0.112 -0.08,-0.352 0.736,-2.928 1.36,-5.568 0.112,-0.496 1.296,-5.6 0.048,-0.208 0.208,-0.304 0.176,-0.112 0.4,-0.112 h 2.208 q 0.224,0 0.384,0.112 0.176,0.096 0.224,0.304 l 1.296,5.6 q 0.624,2.656 1.36,5.568 z m -3.84,-3.472 q 0.288,0 0.24,-0.32 l -0.768,-5.312 v -0.048 l -0.016,0.048 -0.752,5.312 v 0.064 q 0,0.144 0.064,0.208 0.08,0.048 0.192,0.048 h 1.024 z"
     style="font-size:16px"
     id="path54" /><path
     d="m 105.62839,46.495037 q 0.032,0.048 0.032,0.128 0,0.176 -0.32,0.176 h -1.792 q -0.16,0 -0.304,-0.08 -0.144,-0.08 -0.208,-0.224 -0.032,-0.096 -0.304,-0.8 -0.272,-0.72 -0.496,-1.232 -0.256,-0.672 -0.88,-2.032 -0.048,1.456 -0.048,2.048 0,0.64 0.032,1.568 l 0.016,0.432 q 0,0.16 -0.096,0.24 -0.08,0.08 -0.208,0.08 h -1.983998 q -0.128,0 -0.208,-0.08 -0.08,-0.08 -0.08,-0.24 l 0.032,-5.696 -0.032,-5.712 q 0,-0.144 0.08,-0.224 0.096,-0.08 0.224,-0.096 l 2.767998,0.016 q 0.624,0 1.424,0.272 0.816,0.256 1.488,1.088 0.672,0.816 0.672,2.368 0,0.736 -0.4,1.616 -0.384,0.88 -1.392,1.36 -0.08,0.032 -0.08,0.176 0,0.096 0.096,0.32 0.544,1.36 1.008,2.384 z m -3.984,-6.448 q 0.704,0 1.104,-0.464 0.416,-0.464 0.416,-1.12 0,-0.656 -0.432,-1.04 -0.416,-0.4 -1.136,-0.4 -0.24,0 -0.24,0.224 v 2.528 q 0,0.272 0.288,0.272 z"
     style="font-size:16px"
     id="path56" /><path
     d="m 112.26839,34.767037 q 0.144,0 0.24,0.08 0.096,0.064 0.096,0.224 v 1.952 q 0,0.16 -0.096,0.24 -0.096,0.064 -0.24,0.064 h -1.28 q -0.144,0 -0.144,0.112 0,0.032 -0.016,0.928 -0.016,0.88 -0.016,2.416 l 0.016,4.016 q 0.016,0.752 0.016,1.696 0,0.144 -0.08,0.224 -0.08,0.08 -0.208,0.08 h -2.144 q -0.128,0 -0.224,-0.08 -0.08,-0.08 -0.08,-0.224 v -0.496 q 0.032,-1.984 0.032,-5.216 0,-1.488 -0.016,-2.384 -0.016,-0.912 -0.016,-0.96 0,-0.144 -0.16,-0.112 h -1.328 q -0.128,0 -0.208,-0.08 -0.08,-0.08 -0.08,-0.224 v -1.952 q 0,-0.16 0.08,-0.224 0.08,-0.08 0.208,-0.08 z"
     style="font-size:16px"
     id="path58" /><path
     d="m 121.37238,46.239037 q 0,0.24 -0.112,0.416 -0.096,0.16 -0.336,0.16 h -1.872 q -0.208,-0.032 -0.368,-0.176 -0.144,-0.144 -0.144,-0.416 l 0.016,-0.704 0.032,-1.088 0.016,-0.96 0.032,-1.328 q 0,-0.128 -0.128,-0.144 h -1.84 q -0.128,0.016 -0.128,0.144 l 0.032,1.328 0.016,0.96 0.032,1.088 0.016,0.704 q 0,0.272 -0.16,0.416 -0.144,0.144 -0.352,0.176 h -1.888 q -0.224,0 -0.336,-0.16 -0.096,-0.176 -0.096,-0.416 l 0.064,-5.456 -0.064,-5.648 q 0,-0.144 0.096,-0.24 0.112,-0.112 0.336,-0.112 l 1.888,-0.016 q 0.24,0 0.368,0.16 0.128,0.144 0.144,0.352 l -0.032,1.616 q -0.064,1.792 -0.064,2.512 0,0.144 0.128,0.16 h 1.84 q 0.128,-0.016 0.128,-0.16 0,-0.72 -0.064,-2.512 l -0.032,-1.616 q 0.016,-0.208 0.144,-0.352 0.128,-0.16 0.368,-0.16 l 1.872,0.016 q 0.24,0 0.336,0.112 0.112,0.096 0.112,0.24 l -0.048,5.664 z"
     style="font-size:16px"
     id="path60" /></g></svg>
