<?xml version="1.0" encoding="UTF-8" standalone="no"?>
<svg
   xmlns:dc="http://purl.org/dc/elements/1.1/"
   xmlns:cc="http://creativecommons.org/ns#"
   xmlns:rdf="http://www.w3.org/1999/02/22-rdf-syntax-ns#"
   xmlns:svg="http://www.w3.org/2000/svg"
   xmlns="http://www.w3.org/2000/svg"
   xmlns:sodipodi="http://sodipodi.sourceforge.net/DTD/sodipodi-0.dtd"
   xmlns:inkscape="http://www.inkscape.org/namespaces/inkscape"
   width="100%"
   height="100%"
   viewBox="0 0 180 60"
   version="1.1"
   xml:space="preserve"
   style="fill-rule:evenodd;clip-rule:evenodd;stroke-linejoin:round;stroke-miterlimit:2;"
   id="svg34"
   sodipodi:docname="XR-logo-full.svg"
   inkscape:version="1.0.1 (3bc2e813f5, 2020-09-07)"><metadata
   id="metadata40"><rdf:RDF><cc:Work
       rdf:about=""><dc:format>image/svg+xml</dc:format><dc:type
         rdf:resource="http://purl.org/dc/dcmitype/StillImage" /></cc:Work></rdf:RDF></metadata><defs
   id="defs38" /><sodipodi:namedview
   pagecolor="#ffffff"
   bordercolor="#666666"
   borderopacity="1"
   objecttolerance="10"
   gridtolerance="10"
   guidetolerance="10"
   inkscape:pageopacity="0"
   inkscape:pageshadow="2"
   inkscape:window-width="1920"
   inkscape:window-height="1027"
   id="namedview36"
   showgrid="false"
   inkscape:zoom="1.1309553"
   inkscape:cx="509.02235"
   inkscape:cy="-91.957195"
   inkscape:window-x="-8"
   inkscape:window-y="-8"
   inkscape:window-maximized="1"
   inkscape:current-layer="svg34" />
    <g
   transform="matrix(0.661765,0,0,0.666667,-5.29412,-4.66667)"
   id="g32">
        
        
        <path
   d="m 270.52084,51.536844 c 0,9.4 -3.7,18 -9.7,24.3 l -21.1,-24.3 21.1,-24.3 c 6,6.3 9.7,14.9 9.7,24.3 m -35.3,-35.3 c 8.9,0 16.9,3.3 23.1,8.6 h -4.4 -37.4 -4.4 c 6.1,-5.4 14.2,-8.6 23.1,-8.6 m -25.7,11 21.2,24.3 -21.2,24.3 c -6,-6.3 -9.7,-14.9 -9.7,-24.3 0,-9.4 3.7,-18 9.7,-24.3 m 25.7,19.1 -13.1,-15.1 h 26.2 z m 0,10.4 13.1,15.1 h -26.2 z m 0,30.1 c -8.8,0 -16.9,-3.3 -23.1,-8.6 h 46.3 c -6.3,5.4 -14.4,8.6 -23.2,8.6 m 41.7,-35.3 c 0,-23.1 -18.7,-41.7999998 -41.8,-41.7999998 -23.1,0 -41.7,18.6999998 -41.7,41.7999998 0,23.1 18.7,41.8 41.8,41.8 23,0 41.7,-18.7 41.7,-41.8"
   style="fill-rule:nonzero"
   id="path30" />
    </g>
<text
   xml:space="preserve"
   style="font-size:26.6667px;line-height:1.25;font-family:'FUCXED CAPS v4';-inkscape-font-specification:'FUCXED CAPS v4'"
   x="0.66315627"
   y="33.168339"
   id="text44"><tspan
     sodipodi:role="line"
     id="tspan42"
     x="0.66315627"
     y="33.168339"
     style="font-size:26.6667px">resistance</tspan></text><text
   xml:space="preserve"
   style="font-size:32px;line-height:1.25;font-family:'FUCXED CAPS v4';-inkscape-font-specification:'FUCXED CAPS v4'"
   x="78.252426"
   y="46.863037"
   id="text48"><tspan
     sodipodi:role="line"
     id="tspan46"
     x="78.252426"
     y="46.863037"
     style="font-size:16px">.earth</tspan></text></svg>
