<svg xmlns="http://www.w3.org/2000/svg" fill-rule="evenodd" stroke-linejoin="round" stroke-miterlimit="2" viewBox="0 0 155 123"><g fill-rule="nonzero"><path transform="matrix(1.1418 0 -.39798 1.1204 -61.031 -24.304)" d="M164.57 127.53c-2.524-3.47-20.502-30.775-22.3-33.885l-5.383-9.22c-2.224-3.803-4.815-9-5.76-11.525-1.556-4.182-1.718-5.278-1.745-11.814-.033-8.15.708-11.456 4.057-18.118 3.67-7.298 12.808-14.916 21.523-17.94 3.69-1.28 5.288-1.492 11.488-1.52 10.176-.046 14.673 1.474 23.344 7.886 6.576 4.863 10.757 11.05 13.217 19.56 1.166 4.033 1.35 14.936.316 18.838-.838 3.164-3.667 9.283-6.9 14.922l-3.125 5.473c-.87 1.55-7.187 11.875-8.987 14.7l-5.61 9.053c-6.876 11.215-10.186 16-11.176 16.193-.572.105-1.724-.907-2.95-2.593z" fill-opacity=".995" filter="url(#A)" opacity=".434"/><path d="M120.4 43.15C120.4 19.668 101.373.63 77.89.63S35.37 19.668 35.37 43.15 54.41 85.67 77.89 85.67s42.52-19.038 42.52-42.52M77.89 79.122c-9 0-17.24-3.32-23.55-8.794h47.1C95.13 75.803 86.9 79.122 77.9 79.122m0-30.702l13.337 15.337h-26.67zm0-10.545L64.562 22.543h26.656zm-26.094-19.47l21.51 24.742-21.513 24.747C45.677 61.445 41.92 52.74 41.92 43.15s3.76-18.298 9.877-24.746M77.89 7.18c9 0 17.24 3.32 23.55 8.792h-4.5v.002h-38.08v-.002h-4.5c6.3-5.473 14.54-8.792 23.55-8.792m35.972 35.972c0 9.6-3.76 18.294-9.875 24.742L82.474 43.146l21.512-24.742c6.118 6.448 9.877 15.156 9.877 24.746"/></g><path d="M77.508 103.626c-4.66-5.77-16.432-21.224-16.05-21.066 2.455 1.007 7.524 2.422 9.945 2.775 4.69.683 12.8.283 17.078-.844 1.92-.505 4.256-1.256 5.2-1.67s1.736-.71 1.784-.657-2.532 3.662-5.732 8.022l-10.966 14.986z" fill-opacity="0"/><g fill-rule="nonzero"><path d="M76.13 118.526c-9.884-14.31-34.86-52.632-34.047-52.242 5.207 2.5 15.96 6.006 21.098 6.882 9.947 1.695 27.133.702 36.228-2.093 4.075-1.252 9.03-3.115 11.01-4.14s3.684-1.757 3.784-1.628-5.372 9.08-12.16 19.893L84.243 113.61l-5.46 8.753z"/><path d="M65.325 62.653c4.778-5.676 12.408-14.218 12.626-14.136.15.057 3.24 3.515 6.864 7.684l6.6 7.58h-27.03zm28.11-6.7L82.493 43.3c-.123-.314 4.052-5.322 10.74-12.883l10.942-12.368.885 1.022c3.442 3.975 6.562 9.844 8.04 15.124 1.14 4.073 1.14 13.683 0 17.756-1.478 5.28-4.598 11.15-8.038 15.123l-.884 1.02zm-21.4-24.543l-6.63-7.726-.948-1.136h26.96l-6.593 7.623-6.85 7.727c-.142.057-2.815-2.862-5.94-6.488zm-16.43-16.447c3.33-3.046 9.66-6.153 14.898-7.312 4.586-1.015 12.517-.832 16.598.383 4.933 1.468 10.368 4.318 13.366 7l1.114 1-47.155-.004 1.178-1.077zm-6.063 50.364c-4.242-5.304-7.125-12.37-7.775-19.052-.934-9.603 2.396-19.92 8.707-26.982l1.227-1.373 10.884 12.296L73.56 42.798c.05.15-4.32 5.23-9.707 11.3L51.592 67.9zm20.484 13.036c-4.92-1.086-11.356-4.223-14.588-7.112l-1.182-1.056 47.325-.004-1.117.985C97 74.23 90.428 77.33 84.88 78.53c-3.84.83-10.7.758-14.853-.157z" fill="#43a047"/></g><defs><filter id="A" x="-.058" y="-.046" width="1.116" height="1.092" color-interpolation-filters="sRGB"><feGaussianBlur stdDeviation="2.046"/></filter></defs></svg>