<svg xmlns="http://www.w3.org/2000/svg" width="113.386" height="113.386" viewBox="0 0 30 30"><path d="M30 15c0-8.284-6.716-15-15-15S0 6.716 0 15s6.716 15 15 15 15-6.716 15-15M15 27.7a12.63 12.63 0 0 1-8.308-3.102h16.616C21.082 26.52 18.18 27.7 15 27.7m0-10.83l4.705 5.41h-9.41zm0-3.72l-4.702-5.41h9.404zM5.794 6.27l7.59 8.73-7.59 8.73A12.64 12.64 0 0 1 2.31 15c0-3.383 1.327-6.455 3.484-8.73M15 2.3c3.18 0 6.082 1.17 8.308 3.102H6.693C8.92 3.48 11.822 2.3 15 2.3M27.7 15a12.64 12.64 0 0 1-3.484 8.729L16.617 15l7.59-8.73A12.64 12.64 0 0 1 27.69 15"/></svg>